<?xml version="1.0" encoding="iso-8859-1"?>
<!-- Generator: Adobe Illustrator 19.0.0, SVG Export Plug-In . SVG Version: 6.00 Build 0)  -->
<svg version="1.1" id="Layer_1" xmlns="http://www.w3.org/2000/svg" xmlns:xlink="http://www.w3.org/1999/xlink" x="0px" y="0px"
	 viewBox="0 0 512 512" style="enable-background:new 0 0 512 512;" xml:space="preserve">
<g>
	<g>
		<path d="M391.837,334.367H303.02v-83.592h29.396l22.849-171.367v-11.49C355.265,30.468,324.797,0,287.347,0h-62.694
			c-37.45,0-67.918,30.468-67.918,67.918v11.49l22.849,171.367h29.396v83.592h-88.816c-37.45,0-67.918,30.468-67.918,67.918v47.02
			h31.347V512h344.816v-62.694h31.347v-47.02C459.755,364.836,429.287,334.367,391.837,334.367z M224.653,31.347h62.694
			c18.391,0,33.649,13.648,36.192,31.347H188.461C191.004,44.995,206.262,31.347,224.653,31.347z M207.029,219.429L190.31,94.041
			H321.69l-16.718,125.388H207.029z M271.673,250.775v83.592h-31.347v-83.592H271.673z M397.061,480.653H114.939v-31.347h282.122
			V480.653z M428.408,417.959H83.592v-15.673c0-20.165,16.406-36.571,36.571-36.571h271.673c20.166,0,36.571,16.406,36.571,36.571
			V417.959z"/>
	</g>
</g>
<g>
</g>
<g>
</g>
<g>
</g>
<g>
</g>
<g>
</g>
<g>
</g>
<g>
</g>
<g>
</g>
<g>
</g>
<g>
</g>
<g>
</g>
<g>
</g>
<g>
</g>
<g>
</g>
<g>
</g>
</svg>
